M48
;Layer_Color=9474304
;FILE_FORMAT=2:5
INCH,TZ
;TYPE=PLATED
T1F00S00C0.01200
T2F00S00C0.02800
T4F00S00C0.03346
T5F00S00C0.03543
T6F00S00C0.12500
%
T01
X185500Y-245000
X228500Y-248500
X274000Y-248000
X132500Y-245500
X132300Y-278500
X104800Y-263000
X87000Y-261500
X14500Y-222500
X16700Y-190534
X35862Y-201034
X82500Y-202000
X79300Y-184000
X73800Y-186500
X137300
X145800Y-186000
X132130Y-77370
X131130Y-70870
X114300Y-91500
X108000Y-99500
X98000Y-89500
X85546Y-91475
X84280Y-88000
X72000Y-81500
X67500Y-77000
X63500Y-73000
X66500Y-69000
X69500Y-66500
X57300Y-83500
X51300Y-85500
X47300Y-85000
X47800Y-75500
X37300
X38500Y-82500
X29800Y-83500
X24000Y-82500
X19000
X17871Y-102929
X10500Y-109500
X32000Y-96000
X208300Y-100500
X216500Y-129000
X204800Y-136500
X304000Y-137500
X255500Y-40500
X236000Y-28100
X233000Y-17600
X232842Y-12616
X229500Y-9600
Y-5600
X223500Y-3100
X219000
X215000Y-3600
X229500Y6500
X241500Y1500
X250500Y-7100
X221500Y-38100
X162000Y-40500
X146126Y-38500
X146000Y-46000
X125000Y-48000
X126000Y-40500
X125500Y-62500
X136000Y-28000
X140500Y-17000
X131500
X124500Y-16500
X102000Y-28500
X104000Y-32500
X93000Y-28500
X88500Y-32000
X84500Y-30977
X86300Y-24000
X79800Y-22000
X94800
X92000Y7000
X104500Y4500
X70000Y-34500
X67000Y-47000
X46800Y-39000
X55500Y-24500
X29000Y-33000
T02
X31808Y-255742
X18500Y-234500
X55000Y-244000
X194000Y-32000
X195500Y-9500
X199500Y2000
X118500Y-30500
T04
X119831Y-9736
X139516Y-9736
T05
X3000Y-201500
Y-191500
Y-181500
X132500Y-126500
Y-116500
X156000Y-147000
X166000
X176000
X186000
X233000Y-157500
Y-167500
Y-177500
Y-123000
Y-113000
Y-103000
X156000Y-65000
X146000
T06
X51858Y-217795
X271858
Y-57795
X51858
M30
