G04*
G04 #@! TF.GenerationSoftware,Altium Limited,Altium Designer,21.9.2 (33)*
G04*
G04 Layer_Color=16711935*
%FSLAX25Y25*%
%MOIN*%
G70*
G04*
G04 #@! TF.SameCoordinates,36AF05F9-EE1F-4495-BFDE-5FD0FD3D89CD*
G04*
G04*
G04 #@! TF.FilePolarity,Negative*
G04*
G01*
G75*
%ADD65R,0.06706X0.06706*%
%ADD73C,0.06706*%
%ADD74C,0.06509*%
G04:AMPARAMS|DCode=75|XSize=67.06mil|YSize=82.8mil|CornerRadius=18.76mil|HoleSize=0mil|Usage=FLASHONLY|Rotation=180.000|XOffset=0mil|YOffset=0mil|HoleType=Round|Shape=RoundedRectangle|*
%AMROUNDEDRECTD75*
21,1,0.06706,0.04528,0,0,180.0*
21,1,0.02953,0.08280,0,0,180.0*
1,1,0.03753,-0.01476,0.02264*
1,1,0.03753,0.01476,0.02264*
1,1,0.03753,0.01476,-0.02264*
1,1,0.03753,-0.01476,-0.02264*
%
%ADD75ROUNDEDRECTD75*%
%ADD76R,0.06706X0.06706*%
%ADD77C,0.25800*%
%ADD78C,0.05800*%
%ADD103R,0.13398X0.18800*%
D65*
X3000Y-181500D02*
D03*
X233000Y-103000D02*
D03*
X132500Y-116500D02*
D03*
X233000Y-157500D02*
D03*
D73*
X3000Y-201500D02*
D03*
Y-191500D02*
D03*
X233000Y-113000D02*
D03*
Y-123000D02*
D03*
X132500Y-126500D02*
D03*
X166000Y-147000D02*
D03*
X176000D02*
D03*
X186000D02*
D03*
X146000Y-65000D02*
D03*
X233000Y-177500D02*
D03*
Y-167500D02*
D03*
D74*
X139516Y-9736D02*
D03*
X119831Y-9736D02*
D03*
D75*
X116287Y500D02*
D03*
X142665D02*
D03*
D76*
X156000Y-147000D02*
D03*
Y-65000D02*
D03*
D77*
X51858Y-217795D02*
D03*
Y-57795D02*
D03*
X271858Y-217795D02*
D03*
Y-57795D02*
D03*
D78*
X118500Y-30500D02*
D03*
D103*
X2646Y-134500D02*
D03*
X118000D02*
D03*
M02*
