G04*
G04 #@! TF.GenerationSoftware,Altium Limited,Altium Designer,21.9.2 (33)*
G04*
G04 Layer_Color=16711935*
%FSLAX25Y25*%
%MOIN*%
G70*
G04*
G04 #@! TF.SameCoordinates,36AF05F9-EE1F-4495-BFDE-5FD0FD3D89CD*
G04*
G04*
G04 #@! TF.FilePolarity,Positive*
G04*
G01*
G75*
%ADD11C,0.00787*%
%ADD13C,0.00500*%
%ADD14C,0.00600*%
%ADD15C,0.00394*%
D11*
X74835Y-14500D02*
G03*
X74835Y-14500I-394J0D01*
G01*
X63547Y-34874D02*
G03*
X63547Y-34874I-394J0D01*
G01*
D13*
X77000Y-13575D02*
Y-71D01*
X102000D01*
Y-13575D02*
Y-71D01*
X77000Y-13575D02*
X102000D01*
X61579Y-30937D02*
Y-23063D01*
X71421D01*
X61579Y-30937D02*
X71421D01*
Y-23063D01*
D14*
X117100Y-79600D02*
Y-39400D01*
X76900Y-79600D02*
X117100D01*
X76900D02*
Y-39400D01*
X117100D01*
X112100Y-79600D02*
X117100Y-74600D01*
X73000Y-74800D02*
X76900D01*
X73000D02*
Y-73700D01*
X76900D01*
Y-74800D02*
Y-73700D01*
X73000Y-72800D02*
X76900D01*
X73000D02*
Y-71800D01*
X76900D01*
Y-72800D02*
Y-71800D01*
X73000Y-70900D02*
X76900D01*
X73000D02*
Y-69800D01*
X76900D01*
Y-70900D02*
Y-69800D01*
X73000Y-68900D02*
X76900D01*
X73000D02*
Y-67800D01*
X76900D01*
Y-68900D02*
Y-67800D01*
X73000Y-66900D02*
X76900D01*
X73000D02*
Y-65900D01*
X76900D01*
Y-66900D02*
Y-65900D01*
X73000Y-65000D02*
X76900D01*
X73000D02*
Y-63900D01*
X76900D01*
Y-65000D02*
Y-63900D01*
X73000Y-63000D02*
X76900D01*
X73000D02*
Y-61900D01*
X76900D01*
Y-63000D02*
Y-61900D01*
X73000Y-61000D02*
X76900D01*
X73000D02*
Y-60000D01*
X76900D01*
Y-61000D02*
Y-60000D01*
X73000Y-59000D02*
X76900D01*
X73000D02*
Y-58000D01*
X76900D01*
Y-59000D02*
Y-58000D01*
X73000Y-57100D02*
X76900D01*
X73000D02*
Y-56000D01*
X76900D01*
Y-57100D02*
Y-56000D01*
X73000Y-55100D02*
X76900D01*
X73000D02*
Y-54000D01*
X76900D01*
Y-55100D02*
Y-54000D01*
X73000Y-53100D02*
X76900D01*
X73000D02*
Y-52100D01*
X76900D01*
Y-53100D02*
Y-52100D01*
X73000Y-51200D02*
X76900D01*
X73000D02*
Y-50100D01*
X76900D01*
Y-51200D02*
Y-50100D01*
X73000Y-49200D02*
X76900D01*
X73000D02*
Y-48100D01*
X76900D01*
Y-49200D02*
Y-48100D01*
X73000Y-47200D02*
X76900D01*
X73000D02*
Y-46200D01*
X76900D01*
Y-47200D02*
Y-46200D01*
X73000Y-45300D02*
X76900D01*
X73000D02*
Y-44200D01*
X76900D01*
Y-45300D02*
Y-44200D01*
X81700Y-39400D02*
Y-35500D01*
X82800D01*
Y-39400D02*
Y-35500D01*
X81700Y-39400D02*
X82800D01*
X83700D02*
Y-35500D01*
X84700D01*
Y-39400D02*
Y-35500D01*
X83700Y-39400D02*
X84700D01*
X85600D02*
Y-35500D01*
X86700D01*
Y-39400D02*
Y-35500D01*
X85600Y-39400D02*
X86700D01*
X87600D02*
Y-35500D01*
X88700D01*
Y-39400D02*
Y-35500D01*
X87600Y-39400D02*
X88700D01*
X89600D02*
Y-35500D01*
X90600D01*
Y-39400D02*
Y-35500D01*
X89600Y-39400D02*
X90600D01*
X91500D02*
Y-35500D01*
X92600D01*
Y-39400D02*
Y-35500D01*
X91500Y-39400D02*
X92600D01*
X93500D02*
Y-35500D01*
X94600D01*
Y-39400D02*
Y-35500D01*
X93500Y-39400D02*
X94600D01*
X95500D02*
Y-35500D01*
X96500D01*
Y-39400D02*
Y-35500D01*
X95500Y-39400D02*
X96500D01*
X97500D02*
Y-35500D01*
X98500D01*
Y-39400D02*
Y-35500D01*
X97500Y-39400D02*
X98500D01*
X99400D02*
Y-35500D01*
X100500D01*
Y-39400D02*
Y-35500D01*
X99400Y-39400D02*
X100500D01*
X101400D02*
Y-35500D01*
X102500D01*
Y-39400D02*
Y-35500D01*
X101400Y-39400D02*
X102500D01*
X103400D02*
Y-35500D01*
X104400D01*
Y-39400D02*
Y-35500D01*
X103400Y-39400D02*
X104400D01*
X105300D02*
Y-35500D01*
X106400D01*
Y-39400D02*
Y-35500D01*
X105300Y-39400D02*
X106400D01*
X107300D02*
Y-35500D01*
X108400D01*
Y-39400D02*
Y-35500D01*
X107300Y-39400D02*
X108400D01*
X109300D02*
Y-35500D01*
X110300D01*
Y-39400D02*
Y-35500D01*
X109300Y-39400D02*
X110300D01*
X111200D02*
Y-35500D01*
X112300D01*
Y-39400D02*
Y-35500D01*
X111200Y-39400D02*
X112300D01*
X117100Y-44200D02*
X121000D01*
Y-45300D02*
Y-44200D01*
X117100Y-45300D02*
X121000D01*
X117100D02*
Y-44200D01*
Y-46200D02*
X121000D01*
Y-47200D02*
Y-46200D01*
X117100Y-47200D02*
X121000D01*
X117100D02*
Y-46200D01*
Y-48100D02*
X121000D01*
Y-49200D02*
Y-48100D01*
X117100Y-49200D02*
X121000D01*
X117100D02*
Y-48100D01*
Y-50100D02*
X121000D01*
Y-51200D02*
Y-50100D01*
X117100Y-51200D02*
X121000D01*
X117100D02*
Y-50100D01*
Y-52100D02*
X121000D01*
Y-53100D02*
Y-52100D01*
X117100Y-53100D02*
X121000D01*
X117100D02*
Y-52100D01*
Y-54000D02*
X121000D01*
Y-55100D02*
Y-54000D01*
X117100Y-55100D02*
X121000D01*
X117100D02*
Y-54000D01*
Y-56000D02*
X121000D01*
Y-57100D02*
Y-56000D01*
X117100Y-57100D02*
X121000D01*
X117100D02*
Y-56000D01*
Y-58000D02*
X121000D01*
Y-59000D02*
Y-58000D01*
X117100Y-59000D02*
X121000D01*
X117100D02*
Y-58000D01*
Y-60000D02*
X121000D01*
Y-61000D02*
Y-60000D01*
X117100Y-61000D02*
X121000D01*
X117100D02*
Y-60000D01*
Y-61900D02*
X121000D01*
Y-63000D02*
Y-61900D01*
X117100Y-63000D02*
X121000D01*
X117100D02*
Y-61900D01*
Y-63900D02*
X121000D01*
Y-65000D02*
Y-63900D01*
X117100Y-65000D02*
X121000D01*
X117100D02*
Y-63900D01*
Y-65900D02*
X121000D01*
Y-66900D02*
Y-65900D01*
X117100Y-66900D02*
X121000D01*
X117100D02*
Y-65900D01*
Y-67800D02*
X121000D01*
Y-68900D02*
Y-67800D01*
X117100Y-68900D02*
X121000D01*
X117100D02*
Y-67800D01*
Y-69800D02*
X121000D01*
Y-70900D02*
Y-69800D01*
X117100Y-70900D02*
X121000D01*
X117100D02*
Y-69800D01*
Y-71800D02*
X121000D01*
Y-72800D02*
Y-71800D01*
X117100Y-72800D02*
X121000D01*
X117100D02*
Y-71800D01*
Y-73700D02*
X121000D01*
Y-74800D02*
Y-73700D01*
X117100Y-74800D02*
X121000D01*
X117100D02*
Y-74600D01*
Y-73700D01*
X112300Y-83500D02*
Y-79600D01*
X111200Y-83500D02*
X112300D01*
X111200D02*
Y-79600D01*
X112100D01*
X112300D01*
X110300Y-83500D02*
Y-79600D01*
X109300Y-83500D02*
X110300D01*
X109300D02*
Y-79600D01*
X110300D01*
X108400Y-83500D02*
Y-79600D01*
X107300Y-83500D02*
X108400D01*
X107300D02*
Y-79600D01*
X108400D01*
X106400Y-83500D02*
Y-79600D01*
X105300Y-83500D02*
X106400D01*
X105300D02*
Y-79600D01*
X106400D01*
X104400Y-83500D02*
Y-79600D01*
X103400Y-83500D02*
X104400D01*
X103400D02*
Y-79600D01*
X104400D01*
X102500Y-83500D02*
Y-79600D01*
X101400Y-83500D02*
X102500D01*
X101400D02*
Y-79600D01*
X102500D01*
X100500Y-83500D02*
Y-79600D01*
X99400Y-83500D02*
X100500D01*
X99400D02*
Y-79600D01*
X100500D01*
X98500Y-83500D02*
Y-79600D01*
X97500Y-83500D02*
X98500D01*
X97500D02*
Y-79600D01*
X98500D01*
X96500Y-83500D02*
Y-79600D01*
X95500Y-83500D02*
X96500D01*
X95500D02*
Y-79600D01*
X96500D01*
X94600Y-83500D02*
Y-79600D01*
X93500Y-83500D02*
X94600D01*
X93500D02*
Y-79600D01*
X94600D01*
X92600Y-83500D02*
Y-79600D01*
X91500Y-83500D02*
X92600D01*
X91500D02*
Y-79600D01*
X92600D01*
X90600Y-83500D02*
Y-79600D01*
X89600Y-83500D02*
X90600D01*
X89600D02*
Y-79600D01*
X90600D01*
X88700Y-83500D02*
Y-79600D01*
X87600Y-83500D02*
X88700D01*
X87600D02*
Y-79600D01*
X88700D01*
X86700Y-83500D02*
Y-79600D01*
X85600Y-83500D02*
X86700D01*
X85600D02*
Y-79600D01*
X86700D01*
X84700Y-83500D02*
Y-79600D01*
X83700Y-83500D02*
X84700D01*
X83700D02*
Y-79600D01*
X84700D01*
X82800Y-83500D02*
Y-79600D01*
X81700Y-83500D02*
X82800D01*
X81700D02*
Y-79600D01*
X82800D01*
D15*
X209669Y-14201D02*
G03*
X209669Y-14201I-1969J0D01*
G01*
X45905Y-196637D02*
Y-184432D01*
X38819Y-196637D02*
Y-184432D01*
Y-196637D02*
X45905D01*
X38819Y-184432D02*
X45905D01*
X25398Y-247543D02*
Y-240457D01*
X37602Y-247543D02*
Y-240457D01*
X25398Y-247543D02*
X37602D01*
X25398Y-240457D02*
X37602D01*
X168398Y-12543D02*
Y-5457D01*
X180602Y-12543D02*
Y-5457D01*
X168398Y-12543D02*
X180602D01*
X168398Y-5457D02*
X180602D01*
X204157Y-30343D02*
X223843D01*
X204157Y-10657D02*
X223843D01*
Y-30343D02*
Y-10657D01*
X204157Y-30343D02*
Y-10657D01*
X214602Y-121559D02*
Y-114472D01*
X202398Y-121559D02*
Y-114472D01*
X214602D01*
X202398Y-121559D02*
X214602D01*
X218539Y7937D02*
X223461D01*
X218539Y63D02*
X223461D01*
X218539D02*
Y7937D01*
X223461Y63D02*
Y7937D01*
X256602Y-33043D02*
Y-25957D01*
X244398Y-33043D02*
Y-25957D01*
X256602D01*
X244398Y-33043D02*
X256602D01*
M02*
