G04*
G04 #@! TF.GenerationSoftware,Altium Limited,Altium Designer,21.9.2 (33)*
G04*
G04 Layer_Physical_Order=3*
G04 Layer_Color=128*
%FSLAX25Y25*%
%MOIN*%
G70*
G04*
G04 #@! TF.SameCoordinates,36AF05F9-EE1F-4495-BFDE-5FD0FD3D89CD*
G04*
G04*
G04 #@! TF.FilePolarity,Negative*
G04*
G01*
G75*
%ADD10C,0.01000*%
%ADD92C,0.04000*%
%ADD93C,0.07543*%
G04:AMPARAMS|DCode=94|XSize=95.433mil|YSize=95.433mil|CornerRadius=0mil|HoleSize=0mil|Usage=FLASHONLY|Rotation=0.000|XOffset=0mil|YOffset=0mil|HoleType=Round|Shape=Relief|Width=10mil|Gap=10mil|Entries=4|*
%AMTHD94*
7,0,0,0.09543,0.07543,0.01000,45*
%
%ADD94THD94*%
%ADD95C,0.07347*%
%ADD96O,0.07150X0.09118*%
%ADD97C,0.16500*%
G04:AMPARAMS|DCode=98|XSize=72mil|YSize=72mil|CornerRadius=0mil|HoleSize=0mil|Usage=FLASHONLY|Rotation=0.000|XOffset=0mil|YOffset=0mil|HoleType=Round|Shape=Relief|Width=10mil|Gap=10mil|Entries=4|*
%AMTHD98*
7,0,0,0.07200,0.05200,0.01000,45*
%
%ADD98THD98*%
%ADD99C,0.05200*%
%ADD101C,0.06800*%
D10*
X206250Y-182250D02*
X224500Y-200500D01*
X206250Y-182250D02*
Y-151750D01*
X151500Y-127500D02*
X165000Y-141000D01*
X195500D01*
X151500Y-127500D02*
Y11500D01*
X195500Y-141000D02*
X206250Y-151750D01*
X224500Y-200500D02*
X344000D01*
D92*
X-10642Y-287795D02*
X344358D01*
Y12205D01*
X-10642D02*
X344358D01*
X-10642Y-287795D02*
Y12205D01*
D93*
X3000Y-201500D02*
D03*
Y-191500D02*
D03*
Y-181500D02*
D03*
X233000Y-103000D02*
D03*
Y-113000D02*
D03*
Y-123000D02*
D03*
X132500Y-126500D02*
D03*
Y-116500D02*
D03*
X166000Y-147000D02*
D03*
X176000D02*
D03*
X186000D02*
D03*
X146000Y-65000D02*
D03*
X156000D02*
D03*
X233000Y-177500D02*
D03*
Y-167500D02*
D03*
Y-157500D02*
D03*
D94*
X156000Y-147000D02*
D03*
D95*
X139516Y-9736D02*
D03*
X119831Y-9736D02*
D03*
D96*
X115500Y500D02*
D03*
X143453D02*
D03*
D97*
X51858Y-217795D02*
D03*
Y-57795D02*
D03*
X271858Y-217795D02*
D03*
Y-57795D02*
D03*
D98*
X104500Y4500D02*
D03*
X38500Y-82500D02*
D03*
X32000Y-96000D02*
D03*
X125500Y-62500D02*
D03*
X125000Y-48000D02*
D03*
X132130Y-77370D02*
D03*
X29000Y-33000D02*
D03*
X136000Y-28000D02*
D03*
X35862Y-201034D02*
D03*
X86300Y-24000D02*
D03*
X72000Y-81500D02*
D03*
X104000Y-32500D02*
D03*
D99*
X92000Y7000D02*
D03*
X94800Y-22000D02*
D03*
X79800D02*
D03*
X132300Y-278500D02*
D03*
X47800Y-75500D02*
D03*
X47300Y-85000D02*
D03*
X17871Y-102929D02*
D03*
X108000Y-99500D02*
D03*
X46800Y-39000D02*
D03*
X10500Y-109500D02*
D03*
X85546Y-91475D02*
D03*
X16700Y-190534D02*
D03*
X14500Y-222500D02*
D03*
X304000Y-137500D02*
D03*
X204800Y-136500D02*
D03*
X228500Y-248500D02*
D03*
X274000Y-248000D02*
D03*
X137300Y-186500D02*
D03*
X145800Y-186000D02*
D03*
X79300Y-184000D02*
D03*
X73800Y-186500D02*
D03*
X51300Y-85500D02*
D03*
X57300Y-83500D02*
D03*
X69500Y-66500D02*
D03*
X24000Y-82500D02*
D03*
X37300Y-75500D02*
D03*
X29800Y-83500D02*
D03*
X208300Y-100500D02*
D03*
X98000Y-89500D02*
D03*
X114300Y-91500D02*
D03*
X87000Y-261500D02*
D03*
X104800Y-263000D02*
D03*
X82500Y-202000D02*
D03*
X146000Y-46000D02*
D03*
X146126Y-38500D02*
D03*
X162000Y-40500D02*
D03*
X232842Y-12616D02*
D03*
X84280Y-88000D02*
D03*
X126000Y-40500D02*
D03*
X88500Y-32000D02*
D03*
X93000Y-28500D02*
D03*
X84500Y-30977D02*
D03*
X131130Y-70870D02*
D03*
X66500Y-69000D02*
D03*
X63500Y-73000D02*
D03*
X132500Y-245500D02*
D03*
X185500Y-245000D02*
D03*
X19000Y-82500D02*
D03*
X67000Y-47000D02*
D03*
X124500Y-16500D02*
D03*
X140500Y-17000D02*
D03*
X131500D02*
D03*
X55500Y-24500D02*
D03*
X67500Y-77000D02*
D03*
X70000Y-34500D02*
D03*
X102000Y-28500D02*
D03*
X229500Y6500D02*
D03*
X241500Y1500D02*
D03*
X219000Y-3100D02*
D03*
X223500D02*
D03*
X215000Y-3600D02*
D03*
X229500Y-5600D02*
D03*
X250500Y-7100D02*
D03*
X229500Y-9600D02*
D03*
X233000Y-17600D02*
D03*
X236000Y-28100D02*
D03*
X221500Y-38100D02*
D03*
X255500Y-40500D02*
D03*
X216500Y-129000D02*
D03*
D101*
X194000Y-32000D02*
D03*
X31808Y-255742D02*
D03*
X18500Y-234500D02*
D03*
X55000Y-244000D02*
D03*
X118500Y-30500D02*
D03*
X199500Y2000D02*
D03*
X195500Y-9500D02*
D03*
M02*
