G04*
G04 #@! TF.GenerationSoftware,Altium Limited,Altium Designer,21.9.2 (33)*
G04*
G04 Layer_Physical_Order=4*
G04 Layer_Color=16711680*
%FSLAX25Y25*%
%MOIN*%
G70*
G04*
G04 #@! TF.SameCoordinates,36AF05F9-EE1F-4495-BFDE-5FD0FD3D89CD*
G04*
G04*
G04 #@! TF.FilePolarity,Positive*
G04*
G01*
G75*
%ADD14C,0.00600*%
%ADD37R,0.05906X0.05906*%
%ADD72C,0.05000*%
%ADD79C,0.02000*%
%ADD80C,0.00800*%
%ADD85C,0.01200*%
%ADD86C,0.05906*%
%ADD87C,0.05709*%
G04:AMPARAMS|DCode=88|XSize=59.06mil|YSize=74.8mil|CornerRadius=14.76mil|HoleSize=0mil|Usage=FLASHONLY|Rotation=180.000|XOffset=0mil|YOffset=0mil|HoleType=Round|Shape=RoundedRectangle|*
%AMROUNDEDRECTD88*
21,1,0.05906,0.04528,0,0,180.0*
21,1,0.02953,0.07480,0,0,180.0*
1,1,0.02953,-0.01476,0.02264*
1,1,0.02953,0.01476,0.02264*
1,1,0.02953,0.01476,-0.02264*
1,1,0.02953,-0.01476,-0.02264*
%
%ADD88ROUNDEDRECTD88*%
%ADD89R,0.05906X0.05906*%
%ADD90C,0.25000*%
%ADD91C,0.01800*%
%ADD102R,0.12598X0.18000*%
D14*
X94800Y-22916D02*
G03*
X95044Y-23399I600J0D01*
G01*
X79500Y-22756D02*
G03*
X79672Y-23172I600J5D01*
G01*
X84504Y-46330D02*
G03*
X84500Y-46400I596J-70D01*
G01*
X83905Y-47000D02*
G03*
X84326Y-46822I-5J600D01*
G01*
X39826Y-278326D02*
G03*
X40249Y-278500I422J426D01*
G01*
X34449Y-100614D02*
G03*
X34110Y-100784I85J-594D01*
G01*
X19696Y-102728D02*
G03*
X19705Y-102727I-85J594D01*
G01*
X19849Y-102704D02*
G03*
X19900Y-102694I-94J593D01*
G01*
X22943Y-102257D02*
G03*
X23028Y-102251I0J600D01*
G01*
X30405Y-101200D02*
G03*
X30320Y-101206I0J-600D01*
G01*
X82313Y-116658D02*
G03*
X82457Y-116587I-190J569D01*
G01*
X82082Y-116687D02*
G03*
X82313Y-116658I41J599D01*
G01*
X79500Y-116500D02*
G03*
X49875Y-126294I-2953J-40772D01*
G01*
X-3292Y-172280D02*
G03*
X-3500Y-172734I392J-454D01*
G01*
Y-212251D02*
G03*
X-3326Y-212674I600J0D01*
G01*
X102544Y-75700D02*
G03*
X102142Y-75863I10J-600D01*
G01*
X85801Y-93256D02*
G03*
X86723Y-92836I-255J1782D01*
G01*
X88442Y-91889D02*
G03*
X87310Y-92328I47J-1799D01*
G01*
X103244Y-91500D02*
G03*
X103238Y-91500I10J-600D01*
G01*
X105000Y-224748D02*
G03*
X104824Y-224324I-600J0D01*
G01*
X169748Y-19500D02*
G03*
X169326Y-19674I0J-600D01*
G01*
X147251Y-41500D02*
G03*
X147674Y-41326I0J600D01*
G01*
X167148Y-17600D02*
G03*
X166724Y-17776I0J-600D01*
G01*
X117045Y-75700D02*
G03*
X117477Y-75517I-0J600D01*
G01*
X84476Y-76524D02*
G03*
X84300Y-76947I424J-424D01*
G01*
X85984Y-29594D02*
G03*
X85832Y-29332I-578J-160D01*
G01*
X86288Y-31188D02*
G03*
X86234Y-30496I-1788J211D01*
G01*
X84326Y-46822D02*
G03*
X84500Y-46400I-426J422D01*
G01*
X94800Y-22916D02*
Y-22000D01*
X95777Y-23937D02*
X102000Y-28500D01*
X95044Y-23399D02*
X95777Y-23937D01*
X79500Y-22756D02*
Y-22000D01*
X84504Y-46330D02*
X86288Y-31188D01*
X83905Y-47000D02*
X83905D01*
X67000D02*
X83905D01*
X39824Y-278324D02*
X39826Y-278326D01*
X-6000Y-232500D02*
X39824Y-278324D01*
X40249Y-278500D02*
X132772D01*
X124500Y-116500D02*
X132500D01*
X57000Y-83500D02*
Y-75954D01*
X48000Y-76500D02*
Y-75500D01*
X118000Y-134500D02*
Y-123000D01*
X124500Y-116500D01*
X45151Y-79348D02*
X48000Y-76500D01*
X33197Y-100000D02*
X47500Y-85697D01*
X34449Y-100614D02*
X85801Y-93256D01*
X33694Y-101200D02*
X34110Y-100784D01*
X30405Y-101200D02*
X33694D01*
X18254Y-100000D02*
X33197D01*
X32700Y-98800D02*
X45151Y-86348D01*
X14871Y-101686D02*
X17757Y-98800D01*
X16071Y-102183D02*
X18254Y-100000D01*
X17757Y-98800D02*
X32700D01*
X-6000Y-166000D02*
X13671Y-146329D01*
Y-101189D02*
X17610Y-97250D01*
X13671Y-146329D02*
Y-101189D01*
X14871Y-104313D02*
X15929Y-105371D01*
X16071Y-103674D02*
Y-102183D01*
Y-103674D02*
X17126Y-104729D01*
X17610Y-97250D02*
X26296D01*
X14871Y-104313D02*
Y-101686D01*
X17871Y-102980D02*
Y-102929D01*
X17880Y-102989D02*
X19696Y-102728D01*
X17871Y-102980D02*
X17880Y-102989D01*
X17126Y-104729D02*
X76026D01*
X85754Y-95000D01*
X111969D01*
X20337Y-102257D02*
X22943D01*
X19705Y-102727D02*
X19849Y-102704D01*
X23028Y-102251D02*
X30320Y-101206D01*
X19696Y-102728D02*
X19696Y-102728D01*
X19900Y-102694D02*
X20337Y-102257D01*
X45151Y-86348D02*
Y-79348D01*
X26296Y-97250D02*
X41500Y-82046D01*
X82457Y-116587D02*
X108000Y-99500D01*
X79500Y-116500D02*
X82082Y-116687D01*
X-3292Y-172280D02*
X49875Y-126294D01*
X-6000Y-232500D02*
Y-166000D01*
X41500Y-82046D02*
Y-75000D01*
X38300Y-71800D02*
X41500Y-75000D01*
X38300Y-71800D02*
Y-45200D01*
X44500Y-39000D01*
X46800D01*
X-3500Y-212251D02*
Y-172734D01*
X85546Y-91475D02*
X102142Y-75863D01*
X103244Y-91500D02*
X103249Y-91500D01*
X88442Y-91889D02*
X103238Y-91500D01*
X103249Y-91500D02*
X114300D01*
X86723Y-92836D02*
X87310Y-92328D01*
X102549Y-75700D02*
X117045D01*
X102544Y-75700D02*
X102549Y-75700D01*
X-3326Y-212674D02*
X-3324Y-212676D01*
X18500Y-234500D01*
X73800Y-186500D02*
X137300D01*
X143800Y-184000D02*
X145800Y-186000D01*
X79300Y-184000D02*
X143800D01*
X51104Y-85104D02*
X51500Y-85500D01*
X51104Y-85104D02*
Y-77500D01*
X65258Y-63346D01*
X57000Y-75954D02*
X74454Y-58500D01*
X81000D01*
X69500Y-66500D02*
X102546D01*
X81000Y-58500D02*
X93000Y-46500D01*
Y-28500D01*
X65258Y-63242D02*
X72250Y-56250D01*
X65258Y-63346D02*
Y-63242D01*
X72250Y-56250D02*
X78750D01*
X88500Y-46500D01*
Y-32000D01*
X166946Y-2100D02*
X197600D01*
X102546Y-66500D02*
X166946Y-2100D01*
X105000Y-263000D02*
Y-224748D01*
X82500Y-202000D02*
X104824Y-224324D01*
X147674Y-41326D02*
X169326Y-19674D01*
X169748Y-19500D02*
X233787D01*
X139197Y-41500D02*
X147251D01*
X167148Y-17600D02*
X233000D01*
X146500Y-38000D02*
X166724Y-17776D01*
X117477Y-75517D02*
X146000Y-46000D01*
X106197Y-74500D02*
X139197Y-41500D01*
X84280Y-88000D02*
X84300Y-76947D01*
X84476Y-76524D02*
X86500Y-74500D01*
X106197D01*
X106000Y-73000D02*
X163000Y-16000D01*
X63500Y-73000D02*
X106000D01*
X163000Y-16000D02*
X193950D01*
X79672Y-23172D02*
X85832Y-29332D01*
X85984Y-29594D02*
X86234Y-30496D01*
X131500Y-17000D02*
X140500D01*
D37*
X3000Y-181500D02*
D03*
X233000Y-103000D02*
D03*
X132500Y-116500D02*
D03*
X233000Y-157500D02*
D03*
D72*
X194000Y-32000D02*
D03*
X31808Y-255742D02*
D03*
X18500Y-234500D02*
D03*
X55000Y-244000D02*
D03*
X118500Y-30500D02*
D03*
X199500Y2000D02*
D03*
X195500Y-9500D02*
D03*
D79*
X133000Y-145000D02*
Y-126500D01*
X3500Y-191500D02*
Y-191000D01*
X121500Y-156500D02*
X133000Y-145000D01*
X38000Y-156500D02*
X121500D01*
X3500Y-191000D02*
X38000Y-156500D01*
X3000Y-191500D02*
X3500D01*
D80*
X128331Y-97831D02*
G03*
X127769Y-97600I-563J-569D01*
G01*
X176000Y-145827D02*
G03*
X175767Y-145267I-800J-4D01*
G01*
X132234Y-95234D02*
G03*
X131669Y-95000I-566J-566D01*
G01*
X176000Y-147000D02*
Y-145831D01*
X84993Y-97600D02*
X127769D01*
X128331Y-97831D02*
X175767Y-145267D01*
X176000Y-145827D02*
X176000Y-145831D01*
X37000Y-75500D02*
Y-41000D01*
X111969Y-95000D02*
X131669D01*
X184000Y-147000D02*
X186000D01*
X76564Y-106029D02*
X84993Y-97600D01*
X16587Y-106029D02*
X76564D01*
X15929Y-105371D02*
X16587Y-106029D01*
X132234Y-95234D02*
X184000Y-147000D01*
X2646Y-134500D02*
Y-109354D01*
X24000Y-88000D02*
Y-82500D01*
X2646Y-109354D02*
X24000Y-88000D01*
X30000Y-83000D02*
Y-46020D01*
X39000Y-37020D02*
Y-15000D01*
X30000Y-46020D02*
X39000Y-37020D01*
X41750Y-16750D02*
X59000Y500D01*
X37000Y-41000D02*
X41750Y-36250D01*
Y-16750D01*
X39000Y-15000D02*
X56000Y2000D01*
X99500D01*
X59000Y500D02*
X96500D01*
X205734Y6766D02*
X205734D01*
X99500Y2000D02*
X124000Y-22500D01*
X96500Y500D02*
X121000Y-24000D01*
X124000Y-22500D02*
X140631D01*
X121000Y-24000D02*
X143000D01*
X140631Y-22500D02*
X145500Y-17631D01*
Y-16000D01*
X170000Y8500D01*
X212000D01*
X173766Y6766D02*
X205734D01*
X143000Y-24000D02*
X173766Y6766D01*
X205734D02*
X215000Y-2500D01*
X181500Y-129000D02*
X216500D01*
X138500Y-86000D02*
X181500Y-129000D01*
X101500Y-86000D02*
X138500D01*
X98000Y-89500D02*
X101500Y-86000D01*
X233000Y-12458D02*
Y-9500D01*
X232842Y-12616D02*
X233000Y-12458D01*
X106687Y-69000D02*
X138439Y-37248D01*
X66500Y-69000D02*
X106687D01*
X138439Y-37248D02*
Y-35061D01*
X170000Y-3500D01*
X201500Y-8000D02*
X228413D01*
X202100Y-6600D02*
X220000D01*
X223500Y-3100D01*
X228713Y-7700D02*
X231200D01*
X197600Y-2100D02*
X202100Y-6600D01*
X197000Y-3500D02*
X201500Y-8000D01*
X228413D02*
X228713Y-7700D01*
X170000Y-3500D02*
X197000D01*
X233787Y-19500D02*
X235000Y-18287D01*
X229500Y-5600D02*
X230200Y-6300D01*
X231780D01*
X235000Y-9520D01*
X231200Y-7700D02*
X233000Y-9500D01*
X235000Y-18287D02*
Y-9520D01*
X212000Y8500D02*
X219000Y1500D01*
Y-3100D02*
Y1500D01*
X215000Y-3600D02*
Y-2500D01*
X200350Y-9600D02*
X229500D01*
X193950Y-16000D02*
X200350Y-9600D01*
D85*
X303351Y-136852D02*
G03*
X302503Y-136500I-848J-848D01*
G01*
X254497Y506D02*
G03*
X254153Y1347I-1200J-0D01*
G01*
X254500Y-37283D02*
G03*
X254560Y-37653I1200J5D01*
G01*
X205000Y-136500D02*
X302503Y-136500D01*
X303351Y-136852D02*
X304000Y-137500D01*
X254560Y-37653D02*
X255500Y-40500D01*
X162000D02*
X255500D01*
X254497Y506D02*
X254500Y-37283D01*
X254149Y1352D02*
X254153Y1347D01*
X229500Y6500D02*
X249000D01*
X254149Y1352D01*
D86*
X3000Y-201500D02*
D03*
Y-191500D02*
D03*
X233000Y-113000D02*
D03*
Y-123000D02*
D03*
X132500Y-126500D02*
D03*
X166000Y-147000D02*
D03*
X176000D02*
D03*
X186000D02*
D03*
X146000Y-65000D02*
D03*
X233000Y-177500D02*
D03*
Y-167500D02*
D03*
D87*
X139516Y-9736D02*
D03*
X119831Y-9736D02*
D03*
D88*
X116287Y500D02*
D03*
X142665D02*
D03*
D89*
X156000Y-147000D02*
D03*
Y-65000D02*
D03*
D90*
X51858Y-217795D02*
D03*
Y-57795D02*
D03*
X271858Y-217795D02*
D03*
Y-57795D02*
D03*
D91*
X92000Y7000D02*
D03*
X104500Y4500D02*
D03*
X94800Y-22000D02*
D03*
X79800D02*
D03*
X132300Y-278500D02*
D03*
X47800Y-75500D02*
D03*
X47300Y-85000D02*
D03*
X17871Y-102929D02*
D03*
X108000Y-99500D02*
D03*
X38500Y-82500D02*
D03*
X46800Y-39000D02*
D03*
X10500Y-109500D02*
D03*
X85546Y-91475D02*
D03*
X16700Y-190534D02*
D03*
X14500Y-222500D02*
D03*
X304000Y-137500D02*
D03*
X204800Y-136500D02*
D03*
X228500Y-248500D02*
D03*
X274000Y-248000D02*
D03*
X137300Y-186500D02*
D03*
X145800Y-186000D02*
D03*
X79300Y-184000D02*
D03*
X73800Y-186500D02*
D03*
X51300Y-85500D02*
D03*
X57300Y-83500D02*
D03*
X69500Y-66500D02*
D03*
X32000Y-96000D02*
D03*
X24000Y-82500D02*
D03*
X37300Y-75500D02*
D03*
X29800Y-83500D02*
D03*
X208300Y-100500D02*
D03*
X98000Y-89500D02*
D03*
X114300Y-91500D02*
D03*
X87000Y-261500D02*
D03*
X104800Y-263000D02*
D03*
X82500Y-202000D02*
D03*
X146000Y-46000D02*
D03*
X146126Y-38500D02*
D03*
X162000Y-40500D02*
D03*
X232842Y-12616D02*
D03*
X84280Y-88000D02*
D03*
X125500Y-62500D02*
D03*
X125000Y-48000D02*
D03*
X126000Y-40500D02*
D03*
X88500Y-32000D02*
D03*
X93000Y-28500D02*
D03*
X84500Y-30977D02*
D03*
X131130Y-70870D02*
D03*
X132130Y-77370D02*
D03*
X66500Y-69000D02*
D03*
X63500Y-73000D02*
D03*
X132500Y-245500D02*
D03*
X185500Y-245000D02*
D03*
X19000Y-82500D02*
D03*
X29000Y-33000D02*
D03*
X67000Y-47000D02*
D03*
X124500Y-16500D02*
D03*
X140500Y-17000D02*
D03*
X131500D02*
D03*
X136000Y-28000D02*
D03*
X55500Y-24500D02*
D03*
X35862Y-201034D02*
D03*
X86300Y-24000D02*
D03*
X72000Y-81500D02*
D03*
X67500Y-77000D02*
D03*
X70000Y-34500D02*
D03*
X104000Y-32500D02*
D03*
X102000Y-28500D02*
D03*
X229500Y6500D02*
D03*
X241500Y1500D02*
D03*
X219000Y-3100D02*
D03*
X223500D02*
D03*
X215000Y-3600D02*
D03*
X229500Y-5600D02*
D03*
X250500Y-7100D02*
D03*
X229500Y-9600D02*
D03*
X233000Y-17600D02*
D03*
X236000Y-28100D02*
D03*
X221500Y-38100D02*
D03*
X255500Y-40500D02*
D03*
X216500Y-129000D02*
D03*
D102*
X2646Y-134500D02*
D03*
X118000D02*
D03*
M02*
