G04*
G04 #@! TF.GenerationSoftware,Altium Limited,Altium Designer,21.9.2 (33)*
G04*
G04 Layer_Color=8388736*
%FSLAX25Y25*%
%MOIN*%
G70*
G04*
G04 #@! TF.SameCoordinates,2F6B3805-4CB7-4B71-A1E2-F447F127BF3B*
G04*
G04*
G04 #@! TF.FilePolarity,Negative*
G04*
G01*
G75*
%ADD45R,0.03950X0.08280*%
%ADD46R,0.08083X0.04737*%
%ADD47R,0.04737X0.08674*%
%ADD48R,0.06706X0.06706*%
%ADD49R,0.03792X0.10249*%
%ADD50R,0.04737X0.05131*%
%ADD51R,0.04800X0.05800*%
%ADD52R,0.04343X0.03556*%
%ADD53R,0.03556X0.04343*%
%ADD54R,0.09461X0.06312*%
%ADD55R,0.04343X0.06312*%
%ADD56R,0.01900X0.06600*%
%ADD57R,0.06600X0.01900*%
%ADD58R,0.04737X0.08280*%
%ADD59R,0.02375X0.06115*%
%ADD60R,0.05131X0.03359*%
%ADD61R,0.03950X0.03950*%
%ADD62R,0.02887X0.08595*%
%ADD63R,0.05512X0.05118*%
%ADD64R,0.03359X0.05131*%
%ADD65R,0.05800X0.04800*%
%ADD66R,0.03753X0.06312*%
%ADD67R,0.05131X0.04737*%
%ADD68R,0.09068X0.06312*%
%ADD69O,0.01587X0.03556*%
%ADD70O,0.03556X0.01587*%
%ADD71R,0.14186X0.14186*%
%ADD72R,0.04343X0.02375*%
%ADD73C,0.05000*%
%ADD74C,0.06706*%
%ADD75C,0.06509*%
G04:AMPARAMS|DCode=76|XSize=67.06mil|YSize=82.8mil|CornerRadius=18.76mil|HoleSize=0mil|Usage=FLASHONLY|Rotation=180.000|XOffset=0mil|YOffset=0mil|HoleType=Round|Shape=RoundedRectangle|*
%AMROUNDEDRECTD76*
21,1,0.06706,0.04528,0,0,180.0*
21,1,0.02953,0.08280,0,0,180.0*
1,1,0.03753,-0.01476,0.02264*
1,1,0.03753,0.01476,0.02264*
1,1,0.03753,0.01476,-0.02264*
1,1,0.03753,-0.01476,-0.02264*
%
%ADD76ROUNDEDRECTD76*%
%ADD77R,0.06706X0.06706*%
%ADD78C,0.25800*%
%ADD79C,0.05800*%
D45*
X78488Y-269051D02*
D03*
X82819D02*
D03*
X87150D02*
D03*
X91480D02*
D03*
X95811D02*
D03*
X100142D02*
D03*
X104472D02*
D03*
X108803D02*
D03*
D46*
X71791Y-232878D02*
D03*
D47*
X119000Y-229532D02*
D03*
D48*
X118000Y-268000D02*
D03*
X71500Y-268500D02*
D03*
X3000Y-181500D02*
D03*
X233000Y-103000D02*
D03*
X132500Y-116500D02*
D03*
X233000Y-157500D02*
D03*
D49*
X79500Y854D02*
D03*
Y-14500D02*
D03*
X84500Y854D02*
D03*
Y-14500D02*
D03*
X89500Y854D02*
D03*
Y-14500D02*
D03*
X94500Y854D02*
D03*
Y-14500D02*
D03*
X99500Y854D02*
D03*
Y-14500D02*
D03*
D50*
X132500Y-272847D02*
D03*
Y-266154D02*
D03*
X36500Y-96346D02*
D03*
Y-89653D02*
D03*
X1000Y-109846D02*
D03*
Y-103154D02*
D03*
X7000Y-103154D02*
D03*
Y-109846D02*
D03*
X135500Y-32653D02*
D03*
Y-39346D02*
D03*
X42500Y-82346D02*
D03*
Y-75653D02*
D03*
D51*
X8150Y-230500D02*
D03*
X2850D02*
D03*
X29150Y-200500D02*
D03*
X23850D02*
D03*
D52*
X8059Y-223000D02*
D03*
X2941D02*
D03*
X28921Y-186534D02*
D03*
X23803D02*
D03*
X29059Y-194000D02*
D03*
X23941D02*
D03*
X29941Y-232000D02*
D03*
X35059D02*
D03*
X204941Y-3000D02*
D03*
X210059D02*
D03*
X179059Y3500D02*
D03*
X173941D02*
D03*
X210059Y-131000D02*
D03*
X204941D02*
D03*
X199441Y-39500D02*
D03*
X204559D02*
D03*
X250559Y-40500D02*
D03*
X245441D02*
D03*
X237059Y1500D02*
D03*
X231941D02*
D03*
X204941Y2000D02*
D03*
X210059D02*
D03*
D53*
X211500Y-42059D02*
D03*
Y-36941D02*
D03*
X53000Y-194059D02*
D03*
Y-188941D02*
D03*
X21000Y-256059D02*
D03*
Y-250941D02*
D03*
X49000Y-243941D02*
D03*
Y-249059D02*
D03*
X178500Y-27059D02*
D03*
Y-21941D02*
D03*
X170500Y-27059D02*
D03*
Y-21941D02*
D03*
X194500Y-26059D02*
D03*
Y-20941D02*
D03*
X204500Y-100457D02*
D03*
Y-105575D02*
D03*
X231000Y-28059D02*
D03*
Y-22941D02*
D03*
X212500Y-100457D02*
D03*
Y-105575D02*
D03*
X246500Y-11941D02*
D03*
Y-17059D02*
D03*
X254000Y-12941D02*
D03*
Y-18059D02*
D03*
X217000Y-36941D02*
D03*
Y-42059D02*
D03*
D54*
X24457Y-3000D02*
D03*
D55*
X34496D02*
D03*
D56*
X111800Y-82000D02*
D03*
X109800D02*
D03*
X107800D02*
D03*
X105900D02*
D03*
X103900D02*
D03*
X101900D02*
D03*
X100000D02*
D03*
X98000D02*
D03*
X96000D02*
D03*
X94000D02*
D03*
X92100D02*
D03*
X90100D02*
D03*
X88100D02*
D03*
X86200D02*
D03*
X84200D02*
D03*
X82200D02*
D03*
Y-37000D02*
D03*
X84200D02*
D03*
X86200D02*
D03*
X88100D02*
D03*
X90100D02*
D03*
X92100D02*
D03*
X94000D02*
D03*
X96000D02*
D03*
X98000D02*
D03*
X100000D02*
D03*
X101900D02*
D03*
X103900D02*
D03*
X105900D02*
D03*
X107800D02*
D03*
X109800D02*
D03*
X111800D02*
D03*
D57*
X74500Y-74300D02*
D03*
Y-72300D02*
D03*
Y-70300D02*
D03*
Y-68400D02*
D03*
Y-66400D02*
D03*
Y-64400D02*
D03*
Y-62500D02*
D03*
Y-60500D02*
D03*
Y-58500D02*
D03*
Y-56500D02*
D03*
Y-54600D02*
D03*
Y-52600D02*
D03*
Y-50600D02*
D03*
Y-48700D02*
D03*
Y-46700D02*
D03*
Y-44700D02*
D03*
X119500D02*
D03*
Y-46700D02*
D03*
Y-48700D02*
D03*
Y-50600D02*
D03*
Y-52600D02*
D03*
Y-54600D02*
D03*
Y-56500D02*
D03*
Y-58500D02*
D03*
Y-60500D02*
D03*
Y-62500D02*
D03*
Y-64400D02*
D03*
Y-66400D02*
D03*
Y-68400D02*
D03*
Y-70300D02*
D03*
Y-72300D02*
D03*
Y-74300D02*
D03*
D58*
X124752Y894D02*
D03*
X134595D02*
D03*
D59*
X124555Y-9736D02*
D03*
X127114D02*
D03*
X129673D02*
D03*
X132232D02*
D03*
X134791D02*
D03*
D60*
X47086Y-194274D02*
D03*
Y-190534D02*
D03*
Y-186794D02*
D03*
X37637D02*
D03*
Y-194274D02*
D03*
D61*
X132500Y-258248D02*
D03*
Y-251752D02*
D03*
D62*
X-1000Y-75500D02*
D03*
X4000D02*
D03*
X9000D02*
D03*
X14000D02*
D03*
X19000D02*
D03*
X24000D02*
D03*
X29000D02*
D03*
X34000D02*
D03*
X-1000Y-38610D02*
D03*
X4000D02*
D03*
X9000D02*
D03*
X14000D02*
D03*
X19000D02*
D03*
X24000D02*
D03*
X29000D02*
D03*
X34000D02*
D03*
D63*
X63153Y-29756D02*
D03*
X69846D02*
D03*
Y-24244D02*
D03*
X63153D02*
D03*
D64*
X35240Y-248724D02*
D03*
X27760D02*
D03*
Y-239276D02*
D03*
X31500D02*
D03*
X35240D02*
D03*
X178240Y-13724D02*
D03*
X170760D02*
D03*
Y-4276D02*
D03*
X174500D02*
D03*
X178240D02*
D03*
X204760Y-113291D02*
D03*
X212240D02*
D03*
Y-122740D02*
D03*
X208500D02*
D03*
X204760D02*
D03*
X246760Y-24776D02*
D03*
X254240D02*
D03*
Y-34224D02*
D03*
X250500D02*
D03*
X246760D02*
D03*
D65*
X42500Y-244350D02*
D03*
Y-249650D02*
D03*
X186000Y-27150D02*
D03*
Y-21850D02*
D03*
X198000Y-100366D02*
D03*
Y-105666D02*
D03*
X240000Y-11850D02*
D03*
Y-17150D02*
D03*
D66*
X104646Y-22500D02*
D03*
X110354D02*
D03*
D67*
X82346Y-195500D02*
D03*
X75653D02*
D03*
X223153Y-249500D02*
D03*
X229847D02*
D03*
X175654D02*
D03*
X182346D02*
D03*
X268154Y-249000D02*
D03*
X274847D02*
D03*
D68*
X194173Y-256784D02*
D03*
Y-274500D02*
D03*
X230000Y-256784D02*
D03*
Y-274500D02*
D03*
X146673Y-256784D02*
D03*
Y-274500D02*
D03*
X182500Y-256784D02*
D03*
Y-274500D02*
D03*
X241673Y-256784D02*
D03*
Y-274500D02*
D03*
X277500Y-256784D02*
D03*
Y-274500D02*
D03*
D69*
X207110Y-10657D02*
D03*
X209079D02*
D03*
X211047D02*
D03*
X213016D02*
D03*
X214984D02*
D03*
X216953D02*
D03*
X218921D02*
D03*
X220890D02*
D03*
Y-30343D02*
D03*
X218921D02*
D03*
X216953D02*
D03*
X214984D02*
D03*
X213016D02*
D03*
X211047D02*
D03*
X209079D02*
D03*
X207110D02*
D03*
D70*
X223843Y-13610D02*
D03*
Y-15579D02*
D03*
Y-17547D02*
D03*
Y-19516D02*
D03*
Y-21484D02*
D03*
Y-23453D02*
D03*
Y-25421D02*
D03*
Y-27390D02*
D03*
X204157D02*
D03*
Y-25421D02*
D03*
Y-23453D02*
D03*
Y-21484D02*
D03*
Y-19516D02*
D03*
Y-17547D02*
D03*
Y-15579D02*
D03*
Y-13610D02*
D03*
D71*
X214000Y-20500D02*
D03*
D72*
X216669Y1441D02*
D03*
Y6559D02*
D03*
X225331D02*
D03*
Y4000D02*
D03*
Y1441D02*
D03*
D73*
X334000Y0D02*
D03*
Y-274000D02*
D03*
X0Y0D02*
D03*
Y-274000D02*
D03*
D74*
X3000Y-201500D02*
D03*
Y-191500D02*
D03*
X233000Y-113000D02*
D03*
Y-123000D02*
D03*
X132500Y-126500D02*
D03*
X166000Y-147000D02*
D03*
X176000D02*
D03*
X186000D02*
D03*
X146000Y-65000D02*
D03*
X233000Y-177500D02*
D03*
Y-167500D02*
D03*
D75*
X139516Y-9736D02*
D03*
X119831Y-9736D02*
D03*
D76*
X116287Y500D02*
D03*
X142665D02*
D03*
D77*
X156000Y-147000D02*
D03*
Y-65000D02*
D03*
D78*
X51858Y-217795D02*
D03*
Y-57795D02*
D03*
X271858Y-217795D02*
D03*
Y-57795D02*
D03*
D79*
X118500Y-30500D02*
D03*
M02*
