G04*
G04 #@! TF.GenerationSoftware,Altium Limited,Altium Designer,21.9.2 (33)*
G04*
G04 Layer_Color=8421504*
%FSLAX25Y25*%
%MOIN*%
G70*
G04*
G04 #@! TF.SameCoordinates,2F6B3805-4CB7-4B71-A1E2-F447F127BF3B*
G04*
G04*
G04 #@! TF.FilePolarity,Positive*
G04*
G01*
G75*
%ADD17R,0.03150X0.07480*%
%ADD18R,0.07284X0.03937*%
%ADD19R,0.03937X0.07874*%
%ADD20R,0.05906X0.05906*%
%ADD21R,0.02992X0.09449*%
%ADD22R,0.03937X0.04331*%
%ADD23R,0.04000X0.05000*%
%ADD24R,0.03543X0.02756*%
%ADD25R,0.02756X0.03543*%
%ADD26R,0.08661X0.05512*%
%ADD27R,0.03543X0.05512*%
%ADD28R,0.01100X0.05800*%
%ADD29R,0.05800X0.01100*%
%ADD30R,0.03937X0.07480*%
%ADD31R,0.01575X0.05315*%
%ADD32R,0.04331X0.02559*%
%ADD33R,0.03150X0.03150*%
%ADD34R,0.02087X0.07795*%
%ADD35R,0.04724X0.04331*%
%ADD36R,0.02559X0.04331*%
%ADD37R,0.05000X0.04000*%
%ADD38R,0.02953X0.05512*%
%ADD39R,0.04331X0.03937*%
%ADD40R,0.08268X0.05512*%
%ADD41O,0.00787X0.02756*%
%ADD42O,0.02756X0.00787*%
%ADD43R,0.03937X0.03937*%
%ADD44R,0.03543X0.01575*%
D17*
X78488Y-269051D02*
D03*
X82819D02*
D03*
X87150D02*
D03*
X91480D02*
D03*
X95811D02*
D03*
X100142D02*
D03*
X104472D02*
D03*
X108803D02*
D03*
D18*
X71791Y-232878D02*
D03*
D19*
X119000Y-229532D02*
D03*
D20*
X118000Y-268000D02*
D03*
X71500Y-268500D02*
D03*
D21*
X79500Y854D02*
D03*
Y-14500D02*
D03*
X84500Y854D02*
D03*
Y-14500D02*
D03*
X89500Y854D02*
D03*
Y-14500D02*
D03*
X94500Y854D02*
D03*
Y-14500D02*
D03*
X99500Y854D02*
D03*
Y-14500D02*
D03*
D22*
X132500Y-272847D02*
D03*
Y-266154D02*
D03*
X36500Y-96346D02*
D03*
Y-89653D02*
D03*
X1000Y-109846D02*
D03*
Y-103154D02*
D03*
X7000Y-103154D02*
D03*
Y-109846D02*
D03*
X135500Y-32653D02*
D03*
Y-39346D02*
D03*
X42500Y-82346D02*
D03*
Y-75653D02*
D03*
D23*
X8150Y-230500D02*
D03*
X2850D02*
D03*
X29150Y-200500D02*
D03*
X23850D02*
D03*
D24*
X8059Y-223000D02*
D03*
X2941D02*
D03*
X28921Y-186534D02*
D03*
X23803D02*
D03*
X29059Y-194000D02*
D03*
X23941D02*
D03*
X29941Y-232000D02*
D03*
X35059D02*
D03*
X204941Y-3000D02*
D03*
X210059D02*
D03*
X179059Y3500D02*
D03*
X173941D02*
D03*
X210059Y-131000D02*
D03*
X204941D02*
D03*
X199441Y-39500D02*
D03*
X204559D02*
D03*
X250559Y-40500D02*
D03*
X245441D02*
D03*
X237059Y1500D02*
D03*
X231941D02*
D03*
X204941Y2000D02*
D03*
X210059D02*
D03*
D25*
X211500Y-42059D02*
D03*
Y-36941D02*
D03*
X53000Y-194059D02*
D03*
Y-188941D02*
D03*
X21000Y-256059D02*
D03*
Y-250941D02*
D03*
X49000Y-243941D02*
D03*
Y-249059D02*
D03*
X178500Y-27059D02*
D03*
Y-21941D02*
D03*
X170500Y-27059D02*
D03*
Y-21941D02*
D03*
X194500Y-26059D02*
D03*
Y-20941D02*
D03*
X204500Y-100457D02*
D03*
Y-105575D02*
D03*
X231000Y-28059D02*
D03*
Y-22941D02*
D03*
X212500Y-100457D02*
D03*
Y-105575D02*
D03*
X246500Y-11941D02*
D03*
Y-17059D02*
D03*
X254000Y-12941D02*
D03*
Y-18059D02*
D03*
X217000Y-36941D02*
D03*
Y-42059D02*
D03*
D26*
X24457Y-3000D02*
D03*
D27*
X34496D02*
D03*
D28*
X111800Y-82000D02*
D03*
X109800D02*
D03*
X107800D02*
D03*
X105900D02*
D03*
X103900D02*
D03*
X101900D02*
D03*
X100000D02*
D03*
X98000D02*
D03*
X96000D02*
D03*
X94000D02*
D03*
X92100D02*
D03*
X90100D02*
D03*
X88100D02*
D03*
X86200D02*
D03*
X84200D02*
D03*
X82200D02*
D03*
Y-37000D02*
D03*
X84200D02*
D03*
X86200D02*
D03*
X88100D02*
D03*
X90100D02*
D03*
X92100D02*
D03*
X94000D02*
D03*
X96000D02*
D03*
X98000D02*
D03*
X100000D02*
D03*
X101900D02*
D03*
X103900D02*
D03*
X105900D02*
D03*
X107800D02*
D03*
X109800D02*
D03*
X111800D02*
D03*
D29*
X74500Y-74300D02*
D03*
Y-72300D02*
D03*
Y-70300D02*
D03*
Y-68400D02*
D03*
Y-66400D02*
D03*
Y-64400D02*
D03*
Y-62500D02*
D03*
Y-60500D02*
D03*
Y-58500D02*
D03*
Y-56500D02*
D03*
Y-54600D02*
D03*
Y-52600D02*
D03*
Y-50600D02*
D03*
Y-48700D02*
D03*
Y-46700D02*
D03*
Y-44700D02*
D03*
X119500D02*
D03*
Y-46700D02*
D03*
Y-48700D02*
D03*
Y-50600D02*
D03*
Y-52600D02*
D03*
Y-54600D02*
D03*
Y-56500D02*
D03*
Y-58500D02*
D03*
Y-60500D02*
D03*
Y-62500D02*
D03*
Y-64400D02*
D03*
Y-66400D02*
D03*
Y-68400D02*
D03*
Y-70300D02*
D03*
Y-72300D02*
D03*
Y-74300D02*
D03*
D30*
X124752Y894D02*
D03*
X134595D02*
D03*
D31*
X124555Y-9736D02*
D03*
X127114D02*
D03*
X129673D02*
D03*
X132232D02*
D03*
X134791D02*
D03*
D32*
X47086Y-194274D02*
D03*
Y-190534D02*
D03*
Y-186794D02*
D03*
X37637D02*
D03*
Y-194274D02*
D03*
D33*
X132500Y-258248D02*
D03*
Y-251752D02*
D03*
D34*
X-1000Y-75500D02*
D03*
X4000D02*
D03*
X9000D02*
D03*
X14000D02*
D03*
X19000D02*
D03*
X24000D02*
D03*
X29000D02*
D03*
X34000D02*
D03*
X-1000Y-38610D02*
D03*
X4000D02*
D03*
X9000D02*
D03*
X14000D02*
D03*
X19000D02*
D03*
X24000D02*
D03*
X29000D02*
D03*
X34000D02*
D03*
D35*
X63153Y-29756D02*
D03*
X69846D02*
D03*
Y-24244D02*
D03*
X63153D02*
D03*
D36*
X35240Y-248724D02*
D03*
X27760D02*
D03*
Y-239276D02*
D03*
X31500D02*
D03*
X35240D02*
D03*
X178240Y-13724D02*
D03*
X170760D02*
D03*
Y-4276D02*
D03*
X174500D02*
D03*
X178240D02*
D03*
X204760Y-113291D02*
D03*
X212240D02*
D03*
Y-122740D02*
D03*
X208500D02*
D03*
X204760D02*
D03*
X246760Y-24776D02*
D03*
X254240D02*
D03*
Y-34224D02*
D03*
X250500D02*
D03*
X246760D02*
D03*
D37*
X42500Y-244350D02*
D03*
Y-249650D02*
D03*
X186000Y-27150D02*
D03*
Y-21850D02*
D03*
X198000Y-100366D02*
D03*
Y-105666D02*
D03*
X240000Y-11850D02*
D03*
Y-17150D02*
D03*
D38*
X104646Y-22500D02*
D03*
X110354D02*
D03*
D39*
X82346Y-195500D02*
D03*
X75653D02*
D03*
X223153Y-249500D02*
D03*
X229847D02*
D03*
X175654D02*
D03*
X182346D02*
D03*
X268154Y-249000D02*
D03*
X274847D02*
D03*
D40*
X194173Y-256784D02*
D03*
Y-274500D02*
D03*
X230000Y-256784D02*
D03*
Y-274500D02*
D03*
X146673Y-256784D02*
D03*
Y-274500D02*
D03*
X182500Y-256784D02*
D03*
Y-274500D02*
D03*
X241673Y-256784D02*
D03*
Y-274500D02*
D03*
X277500Y-256784D02*
D03*
Y-274500D02*
D03*
D41*
X207110Y-10657D02*
D03*
X209079D02*
D03*
X211047D02*
D03*
X213016D02*
D03*
X214984D02*
D03*
X216953D02*
D03*
X218921D02*
D03*
X220890D02*
D03*
Y-30343D02*
D03*
X218921D02*
D03*
X216953D02*
D03*
X214984D02*
D03*
X213016D02*
D03*
X211047D02*
D03*
X209079D02*
D03*
X207110D02*
D03*
D42*
X223843Y-13610D02*
D03*
Y-15579D02*
D03*
Y-17547D02*
D03*
Y-19516D02*
D03*
Y-21484D02*
D03*
Y-23453D02*
D03*
Y-25421D02*
D03*
Y-27390D02*
D03*
X204157D02*
D03*
Y-25421D02*
D03*
Y-23453D02*
D03*
Y-21484D02*
D03*
Y-19516D02*
D03*
Y-17547D02*
D03*
Y-15579D02*
D03*
Y-13610D02*
D03*
D43*
X214000Y-20500D02*
D03*
D44*
X216669Y1441D02*
D03*
Y6559D02*
D03*
X225331D02*
D03*
Y4000D02*
D03*
Y1441D02*
D03*
M02*
